<svg width="24" height="24" viewBox="0 0 24 24" fill="none" xmlns="http://www.w3.org/2000/svg">
<symbol id="i1">
<path d="M11.9997 1.76001C9.21872 1.76001 8.87001 1.7718 7.77781 1.82163C6.68788 1.87138 5.9435 2.04446 5.29212 2.29761C4.61876 2.5593 4.0477 2.90944 3.47843 3.47871C2.90916 4.04798 2.55902 4.61904 2.29733 5.29241C2.04418 5.94375 1.8711 6.68812 1.82135 7.77805C1.77151 8.87025 1.75977 9.21897 1.75977 12C1.75977 14.781 1.77151 15.1297 1.82135 16.2219C1.8711 17.3118 2.04418 18.0562 2.29733 18.7075C2.55902 19.3809 2.90916 19.952 3.47843 20.5213C4.0477 21.0905 4.61876 21.4407 5.29212 21.7024C5.9435 21.9555 6.68788 22.1286 7.77781 22.1783C8.87001 22.2281 9.21872 22.2399 11.9997 22.2399C14.7807 22.2399 15.1295 22.2281 16.2217 22.1783C17.3116 22.1286 18.056 21.9555 18.7073 21.7024C19.3807 21.4407 19.9517 21.0905 20.521 20.5213C21.0903 19.952 21.4404 19.3809 21.7021 18.7075C21.9552 18.0562 22.1284 17.3118 22.1781 16.2219C22.2279 15.1297 22.2397 14.781 22.2397 12C22.2397 9.21897 22.2279 8.87025 22.1781 7.77805C22.1284 6.68812 21.9552 5.94375 21.7021 5.29241C21.4404 4.61904 21.0903 4.04798 20.521 3.47871C19.9517 2.90944 19.3807 2.5593 18.7073 2.29761C18.056 2.04446 17.3116 1.87138 16.2217 1.82163C15.1295 1.7718 14.7807 1.76001 11.9997 1.76001ZM11.9997 3.60509C14.7339 3.60509 15.0578 3.61549 16.1376 3.66476C17.1359 3.71032 17.6781 3.87714 18.039 4.01733C18.5169 4.20309 18.8581 4.42503 19.2164 4.78334C19.5747 5.14165 19.7966 5.4828 19.9824 5.96074C20.1226 6.32156 20.2894 6.86376 20.3349 7.86215C20.3842 8.94191 20.3947 9.26579 20.3947 12C20.3947 14.7342 20.3842 15.058 20.3349 16.1378C20.2894 17.1362 20.1226 17.6784 19.9824 18.0392C19.7966 18.5172 19.5747 18.8583 19.2164 19.2166C18.8581 19.575 18.5169 19.7969 18.039 19.9826C17.6781 20.1228 17.1359 20.2897 16.1376 20.3352C15.058 20.3845 14.7341 20.3949 11.9997 20.3949C9.26534 20.3949 8.94155 20.3845 7.86191 20.3352C6.86352 20.2897 6.32132 20.1228 5.96049 19.9826C5.48252 19.7969 5.1414 19.575 4.78305 19.2166C4.42474 18.8583 4.20281 18.5172 4.01709 18.0392C3.87686 17.6784 3.71004 17.1362 3.66447 16.1378C3.61521 15.058 3.6048 14.7342 3.6048 12C3.6048 9.26579 3.61521 8.94191 3.66447 7.86215C3.71004 6.86376 3.87686 6.32156 4.01709 5.96074C4.20281 5.4828 4.42474 5.14165 4.78305 4.78334C5.1414 4.42503 5.48252 4.20309 5.96049 4.01733C6.32132 3.87714 6.86352 3.71032 7.86191 3.66476C8.94167 3.61549 9.26555 3.60509 11.9997 3.60509Z" fill="black"/>
<path d="M11.9996 15.4133C10.1144 15.4133 8.58625 13.8851 8.58625 12C8.58625 10.1148 10.1144 8.58661 11.9996 8.58661C13.8847 8.58661 15.4129 10.1148 15.4129 12C15.4129 13.8851 13.8847 15.4133 11.9996 15.4133ZM11.9996 6.74158C9.09544 6.74158 6.74121 9.0958 6.74121 12C6.74121 14.9041 9.09544 17.2583 11.9996 17.2583C14.9037 17.2583 17.2579 14.9041 17.2579 12C17.2579 9.0958 14.9037 6.74158 11.9996 6.74158Z" fill="#030404"/>
<path d="M18.6944 6.53383C18.6944 7.21248 18.1442 7.76261 17.4656 7.76261C16.787 7.76261 16.2368 7.21248 16.2368 6.53383C16.2368 5.85518 16.787 5.30505 17.4656 5.30505C18.1442 5.30505 18.6944 5.85518 18.6944 6.53383Z" fill="#030404"/>
</symbol>
</svg>
