<svg width="24" height="24" viewBox="0 0 24 24"  xmlns="http://www.w3.org/2000/svg">
<symbol id="i2" >
<path d="M7.54753 24C16.6042 24 21.5578 14.7657 21.5578 6.75771C21.5578 6.49546 21.5578 6.23436 21.5434 5.97442C22.507 5.11653 23.3389 4.05442 24 2.83765C23.1014 3.32772 22.148 3.64904 21.1718 3.79107C22.1995 3.03396 22.9692 1.84223 23.3366 0.439242C22.3701 1.14506 21.3126 1.64257 20.2099 1.91019C19.2789 0.691745 17.9786 0 16.6196 0C13.9158 0 11.691 2.73814 11.691 6.06562C11.691 6.52725 11.7338 6.98743 11.8185 7.43705C7.86145 7.19297 4.16948 4.88946 1.67039 1.1056C0.370828 3.85886 1.04325 7.4269 3.19486 9.19506C2.41134 9.1665 1.64466 8.90633 0.96 8.43657V8.51335C0.960656 11.3871 2.62158 13.8848 4.91039 14.4538C4.18552 14.6971 3.42478 14.7326 2.68706 14.5577C3.33052 17.0202 5.18602 18.7176 7.28738 18.7661C5.54409 20.4522 3.38939 21.3681 1.17216 21.3654C0.780375 21.3644 0.388969 21.3352 0 21.2779C2.25159 23.0562 4.87219 23.9997 7.54753 23.9953" fill="black"/>
</symbol>
</svg>
